<svg width="189" height="48" viewBox="0 0 189 48" fill="none" xmlns="http://www.w3.org/2000/svg">
<path d="M21.58 4C17.94 4 15 6.90426 15 10.5C15 14.0681 17.94 16.9723 21.552 17C20.656 16.9723 19.956 16.2532 19.956 15.3681C19.956 14.483 20.684 13.7362 21.608 13.7362C25.528 13.7362 34.236 13.7362 38.072 13.7362C40.788 13.7362 43 11.5511 43 8.86812C43 6.1851 40.788 4 38.072 4L21.58 4Z" fill="black"/>
<path opacity="0.9" d="M13.58 17C9.94 17 7 19.9043 7 23.5C7 27.0681 9.94 29.9723 13.552 30C12.656 29.9723 11.956 29.2532 11.956 28.3681C11.956 27.483 12.684 26.7362 13.608 26.7362C17.528 26.7362 26.236 26.7362 30.072 26.7362C32.788 26.7362 35 24.5511 35 21.8681C35 19.1851 32.788 17 30.072 17L13.58 17Z" fill="black"/>
<path opacity="0.8" d="M8.05 30C4.15 30 1 33.1277 1 37C1 40.8426 4.15 43.9702 8.01998 44C7.05999 43.9702 6.31 43.1958 6.31 42.2425C6.31 41.2894 7.09002 40.4851 8.08003 40.4851C12.28 40.4851 21.61 40.4851 25.72 40.4851C28.63 40.4851 31 38.1319 31 35.2426C31 32.3532 28.63 30 25.72 30L8.05 30Z" fill="black"/>
<path d="M52.98 33.9093V12.9093H66.48V16.5093H56.94V21.5193H65.64V25.1193H56.94V30.3093H66.66V33.9093H52.98Z" fill="black"/>
<path d="M68.2113 39.9093V19.0293H71.9313V20.8293H72.4713C72.8113 20.2493 73.3413 19.7393 74.0613 19.2993C74.7813 18.8393 75.8113 18.6093 77.1513 18.6093C78.3513 18.6093 79.4613 18.9093 80.4813 19.5093C81.5013 20.0893 82.3213 20.9493 82.9413 22.0893C83.5613 23.2293 83.8713 24.6093 83.8713 26.2293V26.7093C83.8713 28.3293 83.5613 29.7093 82.9413 30.8493C82.3213 31.9893 81.5013 32.8593 80.4813 33.4593C79.4613 34.0393 78.3513 34.3293 77.1513 34.3293C76.2513 34.3293 75.4913 34.2193 74.8713 33.9993C74.2713 33.7993 73.7813 33.5393 73.4013 33.2193C73.0413 32.8793 72.7513 32.5393 72.5313 32.1993H71.9913V39.9093H68.2113ZM76.0113 31.0293C77.1913 31.0293 78.1613 30.6593 78.9213 29.9193C79.7013 29.1593 80.0913 28.0593 80.0913 26.6193V26.3193C80.0913 24.8793 79.7013 23.7893 78.9213 23.0493C78.1413 22.2893 77.1713 21.9093 76.0113 21.9093C74.8513 21.9093 73.8813 22.2893 73.1013 23.0493C72.3213 23.7893 71.9313 24.8793 71.9313 26.3193V26.6193C71.9313 28.0593 72.3213 29.1593 73.1013 29.9193C73.8813 30.6593 74.8513 31.0293 76.0113 31.0293Z" fill="black"/>
<path d="M85.8422 33.9093V19.0293H89.6222V33.9093H85.8422ZM87.7322 17.2893C87.0522 17.2893 86.4722 17.0693 85.9922 16.6293C85.5322 16.1893 85.3022 15.6093 85.3022 14.8893C85.3022 14.1693 85.5322 13.5893 85.9922 13.1493C86.4722 12.7093 87.0522 12.4893 87.7322 12.4893C88.4322 12.4893 89.0122 12.7093 89.4722 13.1493C89.9322 13.5893 90.1622 14.1693 90.1622 14.8893C90.1622 15.6093 89.9322 16.1893 89.4722 16.6293C89.0122 17.0693 88.4322 17.2893 87.7322 17.2893Z" fill="black"/>
<path d="M99.3009 34.3293C97.8609 34.3293 96.5509 34.0293 95.3709 33.4293C94.2109 32.8293 93.2909 31.9593 92.6109 30.8193C91.9309 29.6793 91.5909 28.2993 91.5909 26.6793V26.2593C91.5909 24.6393 91.9309 23.2593 92.6109 22.1193C93.2909 20.9793 94.2109 20.1093 95.3709 19.5093C96.5509 18.9093 97.8609 18.6093 99.3009 18.6093C100.721 18.6093 101.941 18.8593 102.961 19.3593C103.981 19.8593 104.801 20.5493 105.421 21.4293C106.061 22.2893 106.481 23.2693 106.681 24.3693L103.021 25.1493C102.941 24.5493 102.761 24.0093 102.481 23.5293C102.201 23.0493 101.801 22.6693 101.281 22.3893C100.781 22.1093 100.151 21.9693 99.3909 21.9693C98.6309 21.9693 97.9409 22.1393 97.3209 22.4793C96.7209 22.7993 96.2409 23.2893 95.8809 23.9493C95.5409 24.5893 95.3709 25.3793 95.3709 26.3193V26.6193C95.3709 27.5593 95.5409 28.3593 95.8809 29.0193C96.2409 29.6593 96.7209 30.1493 97.3209 30.4893C97.9409 30.8093 98.6309 30.9693 99.3909 30.9693C100.531 30.9693 101.391 30.6793 101.971 30.0993C102.571 29.4993 102.951 28.7193 103.111 27.7593L106.771 28.6293C106.511 29.6893 106.061 30.6593 105.421 31.5393C104.801 32.3993 103.981 33.0793 102.961 33.5793C101.941 34.0793 100.721 34.3293 99.3009 34.3293Z" fill="black"/>
<path d="M114.059 34.1493C112.899 34.1493 111.879 33.8893 110.999 33.3693C110.139 32.8293 109.469 32.0893 108.989 31.1493C108.509 30.2093 108.269 29.1293 108.269 27.9093V19.0293H112.049V27.6093C112.049 28.7293 112.319 29.5693 112.859 30.1293C113.419 30.6893 114.209 30.9693 115.229 30.9693C116.389 30.9693 117.289 30.5893 117.929 29.8293C118.569 29.0493 118.889 27.9693 118.889 26.5893V19.0293H122.669V33.9093H118.949V31.9593H118.409C118.169 32.4593 117.719 32.9493 117.059 33.4293C116.399 33.9093 115.399 34.1493 114.059 34.1493Z" fill="black"/>
<path d="M125.375 33.9093V19.0293H129.095V20.7093H129.635C129.855 20.1093 130.215 19.6693 130.715 19.3893C131.235 19.1093 131.835 18.9693 132.515 18.9693H134.315V22.3293H132.455C131.495 22.3293 130.705 22.5893 130.085 23.1093C129.465 23.6093 129.155 24.3893 129.155 25.4493V33.9093H125.375Z" fill="black"/>
<path d="M135.77 33.9093V19.0293H139.55V33.9093H135.77ZM137.66 17.2893C136.98 17.2893 136.4 17.0693 135.92 16.6293C135.46 16.1893 135.23 15.6093 135.23 14.8893C135.23 14.1693 135.46 13.5893 135.92 13.1493C136.4 12.7093 136.98 12.4893 137.66 12.4893C138.36 12.4893 138.94 12.7093 139.4 13.1493C139.86 13.5893 140.09 14.1693 140.09 14.8893C140.09 15.6093 139.86 16.1893 139.4 16.6293C138.94 17.0693 138.36 17.2893 137.66 17.2893Z" fill="black"/>
<path d="M149.319 34.3293C147.839 34.3293 146.509 34.0293 145.329 33.4293C144.149 32.8293 143.219 31.9593 142.539 30.8193C141.859 29.6793 141.519 28.3093 141.519 26.7093V26.2293C141.519 24.6293 141.859 23.2593 142.539 22.1193C143.219 20.9793 144.149 20.1093 145.329 19.5093C146.509 18.9093 147.839 18.6093 149.319 18.6093C150.799 18.6093 152.129 18.9093 153.309 19.5093C154.489 20.1093 155.419 20.9793 156.099 22.1193C156.779 23.2593 157.119 24.6293 157.119 26.2293V26.7093C157.119 28.3093 156.779 29.6793 156.099 30.8193C155.419 31.9593 154.489 32.8293 153.309 33.4293C152.129 34.0293 150.799 34.3293 149.319 34.3293ZM149.319 30.9693C150.479 30.9693 151.439 30.5993 152.199 29.8593C152.959 29.0993 153.339 28.0193 153.339 26.6193V26.3193C153.339 24.9193 152.959 23.8493 152.199 23.1093C151.459 22.3493 150.499 21.9693 149.319 21.9693C148.159 21.9693 147.199 22.3493 146.439 23.1093C145.679 23.8493 145.299 24.9193 145.299 26.3193V26.6193C145.299 28.0193 145.679 29.0993 146.439 29.8593C147.199 30.5993 148.159 30.9693 149.319 30.9693Z" fill="black"/>
<path d="M164.778 34.1493C163.618 34.1493 162.598 33.8893 161.718 33.3693C160.858 32.8293 160.188 32.0893 159.708 31.1493C159.228 30.2093 158.988 29.1293 158.988 27.9093V19.0293H162.768V27.6093C162.768 28.7293 163.038 29.5693 163.578 30.1293C164.138 30.6893 164.928 30.9693 165.948 30.9693C167.108 30.9693 168.008 30.5893 168.648 29.8293C169.288 29.0493 169.608 27.9693 169.608 26.5893V19.0293H173.388V33.9093H169.668V31.9593H169.128C168.888 32.4593 168.438 32.9493 167.778 33.4293C167.118 33.9093 166.118 34.1493 164.778 34.1493Z" fill="black"/>
<path d="M182.274 34.3293C180.334 34.3293 178.744 33.9093 177.504 33.0693C176.264 32.2293 175.514 31.0293 175.254 29.4693L178.734 28.5693C178.874 29.2693 179.104 29.8193 179.424 30.2193C179.764 30.6193 180.174 30.9093 180.654 31.0893C181.154 31.2493 181.694 31.3293 182.274 31.3293C183.154 31.3293 183.804 31.1793 184.224 30.8793C184.644 30.5593 184.854 30.1693 184.854 29.7093C184.854 29.2493 184.654 28.8993 184.254 28.6593C183.854 28.3993 183.214 28.1893 182.334 28.0293L181.494 27.8793C180.454 27.6793 179.504 27.4093 178.644 27.0693C177.784 26.7093 177.094 26.2193 176.574 25.5993C176.054 24.9793 175.794 24.1793 175.794 23.1993C175.794 21.7193 176.334 20.5893 177.414 19.8093C178.494 19.0093 179.914 18.6093 181.674 18.6093C183.334 18.6093 184.714 18.9793 185.814 19.7193C186.914 20.4593 187.634 21.4293 187.974 22.6293L184.464 23.7093C184.304 22.9493 183.974 22.4093 183.474 22.0893C182.994 21.7693 182.394 21.6093 181.674 21.6093C180.954 21.6093 180.404 21.7393 180.024 21.9993C179.644 22.2393 179.454 22.5793 179.454 23.0193C179.454 23.4993 179.654 23.8593 180.054 24.0993C180.454 24.3193 180.994 24.4893 181.674 24.6093L182.514 24.7593C183.634 24.9593 184.644 25.2293 185.544 25.5693C186.464 25.8893 187.184 26.3593 187.704 26.9793C188.244 27.5793 188.514 28.3993 188.514 29.4393C188.514 30.9993 187.944 32.2093 186.804 33.0693C185.684 33.9093 184.174 34.3293 182.274 34.3293Z" fill="black"/>
</svg>
